HIERARCHY
ROOT SpineBase
{
  OFFSET 0.000000 0.000000 0.000000
  CHANNELS 6 Xposition Yposition Zposition Zrotation Xrotation Yrotation
  JOINT SpineMid
  {
    OFFSET 0.000000 26.458422 0.000000
    CHANNELS 3 Zrotation Xrotation Yrotation
    JOINT SpineShoulder
    {
      OFFSET -0.013274 19.707384 -0.631717
      CHANNELS 3 Zrotation Xrotation Yrotation
      JOINT Neck
      {
        OFFSET -0.019792 6.538794 -0.490686
        CHANNELS 3 Zrotation Xrotation Yrotation
        JOINT Head
        {
          OFFSET -3.086383 11.682852 0.592221
          CHANNELS 3 Zrotation Xrotation Yrotation
          End Site
          {
            OFFSET 0 0 0
          }
        }
      }
      JOINT ShoulderLeft
      {
        OFFSET -12.054717 -3.372822 5.236840
        CHANNELS 3 Zrotation Xrotation Yrotation
        JOINT ElbowLeft
        {
          OFFSET -1.690504 -24.662771 2.441927
          CHANNELS 3 Zrotation Xrotation Yrotation
          JOINT WristLeft
          {
            OFFSET 0.399198 -21.191263 -5.259436
            CHANNELS 3 Zrotation Xrotation Yrotation
            JOINT HandLeft
            {
              OFFSET 0.444803 -3.979946 -0.757284
              CHANNELS 3 Zrotation Xrotation Yrotation
              JOINT HandTipLeft
              {
                OFFSET 0.590107 -6.226690 -0.426667
                CHANNELS 3 Zrotation Xrotation Yrotation
                End Site
                {
                  OFFSET 0 0 0
                }
              }
              JOINT ThumbLeft
              {
                OFFSET 3.143088 -0.388287 -4.086995
                CHANNELS 3 Zrotation Xrotation Yrotation
                End Site
                {
                  OFFSET 0 0 0
                }
              }
            }
          }
        }
      }
      JOINT ShoulderRight
      {
        OFFSET 11.794651 -1.859432 -6.678206
        CHANNELS 3 Zrotation Xrotation Yrotation
        JOINT ElbowRight
        {
          OFFSET 5.091638 -22.913178 -2.678454
          CHANNELS 3 Zrotation Xrotation Yrotation
          JOINT WristRight
          {
            OFFSET -0.033931 -21.560967 -6.997616
            CHANNELS 3 Zrotation Xrotation Yrotation
            JOINT HandRight
            {
              OFFSET -1.066058 -5.440113 -0.198149
              CHANNELS 3 Zrotation Xrotation Yrotation
              JOINT HandTipRight
              {
                OFFSET -0.013623 -5.860368 -1.534986
                CHANNELS 3 Zrotation Xrotation Yrotation
                End Site
                {
                  OFFSET 0 0 0
                }
              }
              JOINT ThumbRight
              {
                OFFSET 1.901650 -0.317277 -2.288408
                CHANNELS 3 Zrotation Xrotation Yrotation
                End Site
                {
                  OFFSET 0 0 0
                }
              }
            }
          }
        }
      }
    }
  }
  JOINT HipLeft
  {
    OFFSET -5.318999 0.299249 -0.862064
    CHANNELS 3 Zrotation Xrotation Yrotation
    JOINT KneeLeft
    {
      OFFSET 7.702826 -32.487129 4.145043
      CHANNELS 3 Zrotation Xrotation Yrotation
      JOINT AnkleLeft
      {
        OFFSET 11.625260 -31.879584 5.567320
        CHANNELS 3 Zrotation Xrotation Yrotation
        JOINT FootLeft
        {
          OFFSET -2.703812 -4.502214 -7.435168
          CHANNELS 3 Zrotation Xrotation Yrotation
          End Site
          {
            OFFSET 0 0 0
          }
        }
      }
    }
  }
  JOINT HipRight
  {
    OFFSET 5.041667 1.089365 -5.131636
    CHANNELS 3 Zrotation Xrotation Yrotation
    JOINT KneeRight
    {
      OFFSET 9.191333 -32.888104 1.861870
      CHANNELS 3 Zrotation Xrotation Yrotation
      JOINT AnkleRight
      {
        OFFSET 4.619119 -29.586895 7.469205
        CHANNELS 3 Zrotation Xrotation Yrotation
        JOINT FootRight
        {
          OFFSET -3.761065 -3.080266 -10.494392
          CHANNELS 3 Zrotation Xrotation Yrotation
          End Site
          {
            OFFSET 0 0 0
          }
        }
      }
    }
  }
}
MOTION
Frames: 16
Frame Time: 0.033333
22.022277 70.068070 369.906494 6.028197 -10.813151 4.634301 -0.776215 -1.685260 -3.760501 -0.484746 -0.164211 0.219554 -9.534492 -11.850651 -6.228900 0.000000 0.000000 0.000000 -2.042395 2.432345 0.824464 -1.019304 -0.164806 -1.519837 7.895554 10.960210 -2.761107 0.033640 -2.051448 1.126997 0.000000 0.000000 0.000000 0.000000 0.000000 0.000000 14.826270 -25.914971 -8.738161 -24.401576 17.578214 18.259579 8.704465 38.659535 -8.885076 6.680650 -8.144671 3.752961 0.000000 0.000000 0.000000 0.000000 0.000000 0.000000 -9.982672 12.050591 -3.055001 3.327538 1.823095 1.141349 7.571572 4.015856 -13.965812 0.000000 0.000000 0.000000 -11.934834 19.045750 -0.041582 5.249410 -5.256081 -1.447667 5.794446 -8.056676 -9.538672 0.000000 0.000000 0.000000
22.004325 70.031788 369.932145 5.329459 -11.221272 4.304473 -1.231226 -1.448558 -3.490681 -0.690074 0.084517 0.168568 -5.020428 -12.044146 -6.469614 0.000000 0.000000 0.000000 -1.233150 2.303884 0.799197 -0.077966 0.359902 -1.646407 8.142473 10.602957 -2.800630 0.816880 -0.966768 1.173555 0.000000 0.000000 0.000000 0.000000 0.000000 0.000000 16.508252 -25.154750 -8.704966 -24.278432 16.477717 17.851784 0.873095 38.527846 -4.800716 13.097604 -9.032642 4.581081 0.000000 0.000000 0.000000 0.000000 0.000000 0.000000 -10.324278 12.454717 -2.699840 4.244725 1.002727 0.952005 8.305193 5.393853 -15.092979 0.000000 0.000000 0.000000 -11.350671 19.324973 0.236270 5.182341 -4.992954 -1.436551 6.195279 -10.156960 -8.338749 0.000000 0.000000 0.000000
22.033030 70.006977 369.971523 4.861403 -11.728964 4.486397 -1.177411 -1.270723 -3.721575 -0.244836 0.000859 0.136516 -4.406147 -11.426993 -6.414709 0.000000 0.000000 0.000000 -1.810531 2.996888 0.796297 0.272755 0.758992 -1.542674 9.794924 9.245674 -3.292306 -0.228461 0.740872 1.416513 0.000000 0.000000 0.000000 0.000000 0.000000 0.000000 17.631210 -24.474746 -8.823570 -25.197894 15.211819 18.067312 -4.923841 38.493783 -1.725457 17.819010 -10.286037 5.167587 0.000000 0.000000 0.000000 0.000000 0.000000 0.000000 -10.027544 13.086612 -2.839354 3.751968 0.220047 0.574132 12.907629 -0.546796 -18.643259 0.000000 0.000000 0.000000 -10.892570 19.766708 0.042613 5.157761 -4.805037 -1.432342 6.493213 -11.640824 -7.068185 0.000000 0.000000 0.000000
22.050379 69.926311 369.982389 4.427717 -12.105609 4.339110 -1.136146 -1.162204 -3.624818 -0.268553 0.090992 0.118278 -2.977672 -10.932063 -6.388125 0.000000 0.000000 0.000000 -2.084710 3.058532 0.818719 0.244081 1.498141 -1.280532 12.102034 8.795900 -3.946176 -0.296333 0.731776 1.588649 0.000000 0.000000 0.000000 0.000000 0.000000 0.000000 17.896138 -23.187759 -8.832320 -26.458444 15.263266 18.535776 -4.278959 34.287628 -1.677009 18.814475 -8.357433 4.075176 0.000000 0.000000 0.000000 0.000000 0.000000 0.000000 -10.302756 13.785860 -2.550348 3.942160 -0.656737 0.288647 16.881758 -4.177400 -23.099341 0.000000 0.000000 0.000000 -10.582984 20.063836 0.182574 5.002352 -4.866510 -1.519739 6.801900 -12.039075 -6.417884 0.000000 0.000000 0.000000
21.998145 69.799738 369.936965 4.134146 -12.477819 4.343400 -0.865350 -1.134355 -3.675424 -0.585246 0.239657 0.128683 -3.183811 -10.451722 -6.277125 0.000000 0.000000 0.000000 -2.364797 3.110536 0.844045 1.088062 2.626282 -1.351439 9.932588 7.016823 -3.072357 1.238153 4.640389 1.203895 0.000000 0.000000 0.000000 0.000000 0.000000 0.000000 19.504364 -22.184313 -8.891088 -27.704766 13.394575 18.741134 -6.276388 35.649034 -0.763929 20.427029 -10.057543 4.806436 0.000000 0.000000 0.000000 0.000000 0.000000 0.000000 -10.017022 14.280755 -2.510891 3.814283 -0.573766 0.318687 20.125646 -8.649565 -27.458507 0.000000 0.000000 0.000000 -10.227556 20.280382 0.122493 4.653029 -4.957011 -1.642410 7.072293 -11.493452 -6.506600 0.000000 0.000000 0.000000
21.886154 69.646761 369.812325 3.830242 -12.697130 4.109199 -0.811880 -1.044436 -3.483866 -0.811884 0.407347 0.126682 -2.965404 -10.267012 -6.216193 0.000000 0.000000 0.000000 -2.487278 3.110555 0.846551 2.540046 3.879683 -1.642360 7.025767 4.171779 -2.056883 1.875943 5.822190 0.967730 0.000000 0.000000 0.000000 0.000000 0.000000 0.000000 21.514837 -21.665574 -8.910895 -27.800970 11.038660 18.247629 -16.029361 39.711500 4.094072 30.550187 -13.329813 7.379493 0.000000 0.000000 0.000000 0.000000 0.000000 0.000000 -9.740267 14.493034 -2.292934 3.836032 -0.256362 0.456816 23.072740 -16.339676 -30.849909 0.000000 0.000000 0.000000 -9.870850 20.238623 0.236951 4.203194 -5.088798 -1.784762 7.162989 -9.953877 -6.954998 0.000000 0.000000 0.000000
21.755125 69.495148 369.624399 3.553618 -12.729133 3.634372 -0.839432 -0.858667 -3.050912 -1.071014 0.608960 0.123607 -2.324622 -11.065827 -6.382256 0.000000 0.000000 0.000000 -2.530136 2.741078 0.838538 2.943652 4.984607 -1.547598 6.215299 2.953254 -1.722759 -0.279662 6.129558 1.202762 0.000000 0.000000 0.000000 0.000000 0.000000 0.000000 24.181081 -22.265298 -8.834883 -28.320276 8.608411 18.274655 -23.864481 43.707911 8.869122 36.598183 -15.775626 9.704910 0.000000 0.000000 0.000000 0.000000 0.000000 0.000000 -8.967477 14.013588 -2.055243 3.373035 0.458374 0.615846 23.184114 -17.665315 -31.018068 0.000000 0.000000 0.000000 -9.624470 19.946411 0.563814 4.136554 -4.949746 -1.736083 6.729171 -7.925973 -7.944388 0.000000 0.000000 0.000000
21.631123 69.354901 369.406627 3.211068 -12.824589 2.982634 -0.830112 -0.777170 -2.449083 -1.203449 0.696498 0.116821 -1.504020 -10.897555 -6.349992 0.000000 0.000000 0.000000 -2.448566 2.321598 0.851013 2.018512 6.165451 -1.052247 8.780805 2.643212 -2.298651 -3.633844 5.029532 1.685001 0.000000 0.000000 0.000000 0.000000 0.000000 0.000000 26.627049 -23.194553 -8.847460 -29.259942 6.750519 18.863391 -30.977595 48.610824 13.897525 40.412901 -17.642323 12.525999 0.000000 0.000000 0.000000 0.000000 0.000000 0.000000 -8.354038 13.382336 -1.676766 3.743390 1.607733 1.041355 18.403245 -9.982529 -26.233947 0.000000 0.000000 0.000000 -9.403227 19.652729 1.065652 3.878429 -5.013701 -1.795822 6.599291 -5.200658 -9.520192 0.000000 0.000000 0.000000
21.534876 69.247969 369.210316 2.708147 -12.951162 2.379715 -1.017372 -0.590177 -1.905824 -1.307791 0.750783 0.095936 0.885061 -10.565501 -6.346319 0.000000 0.000000 0.000000 -1.851020 2.390170 0.813358 0.900744 6.482848 -0.504318 11.430688 3.345927 -2.887951 -7.065363 2.752438 1.981228 0.000000 0.000000 0.000000 0.000000 0.000000 0.000000 30.156867 -25.356355 -8.777832 -33.634706 7.532921 21.561528 -29.686354 48.790657 13.224704 35.768626 -13.346572 11.476090 0.000000 0.000000 0.000000 0.000000 0.000000 0.000000 -7.533015 12.844300 -1.368321 3.697279 2.574526 1.324580 16.714726 -8.168731 -24.778252 0.000000 0.000000 0.000000 -9.027488 19.470621 1.512929 3.970712 -4.786078 -1.692721 6.028293 -0.606490 -12.608922 0.000000 0.000000 0.000000
21.474432 69.181170 369.003606 2.160113 -12.897683 1.629097 -1.303549 -0.391913 -1.217928 -1.316661 0.846227 0.064423 3.930999 -11.318742 -6.580350 0.000000 0.000000 0.000000 -1.491272 1.631445 0.806870 0.169486 7.287732 -0.023610 12.298634 3.233563 -3.055737 -8.704395 2.986269 2.090880 0.000000 0.000000 0.000000 0.000000 0.000000 0.000000 33.702518 -28.159237 -8.416602 -37.489873 8.859950 24.153287 -31.084940 48.741078 14.033757 33.026273 -10.779043 11.401521 0.000000 0.000000 0.000000 0.000000 0.000000 0.000000 -7.749420 12.174290 -0.831522 4.940813 3.079629 1.585951 16.169445 -9.193682 -24.718474 0.000000 0.000000 0.000000 -8.714124 19.102553 2.090576 4.643321 -3.989395 -1.306379 5.707159 -3.541574 -11.866483 0.000000 0.000000 0.000000
21.459913 69.162808 368.776451 1.517297 -12.670697 1.119855 -1.569010 -0.176618 -0.788721 -1.217219 0.900217 0.024699 7.742480 -12.529524 -6.841370 0.000000 0.000000 0.000000 -0.854965 1.075791 0.771464 -1.208275 6.844311 0.577538 14.014522 6.037909 -3.539379 -10.638325 3.197784 2.033307 0.000000 0.000000 0.000000 0.000000 0.000000 0.000000 36.984446 -31.251266 -7.777693 -40.760322 10.917251 26.494840 -33.957494 47.015671 15.290375 29.425187 -8.645822 11.196690 0.000000 0.000000 0.000000 0.000000 0.000000 0.000000 -7.472825 11.264885 -0.650044 5.257672 3.546020 1.685448 15.585516 -7.192770 -24.457526 0.000000 0.000000 0.000000 -8.299359 18.613856 2.389993 5.599205 -2.932269 -0.813161 5.342559 -7.236748 -11.229223 0.000000 0.000000 0.000000
21.440909 69.174630 368.555843 0.800762 -12.289676 0.391390 -1.771572 0.012395 -0.154514 -1.013565 0.878663 -0.020507 11.959993 -14.637802 -7.152338 0.000000 0.000000 0.000000 -0.308350 0.861215 0.721692 -2.353253 5.514396 1.046298 16.200561 10.192049 -4.257043 -13.486687 0.522778 1.547203 0.000000 0.000000 0.000000 0.000000 0.000000 0.000000 39.707504 -34.195575 -6.969418 -44.837971 13.507429 29.445862 -33.504368 47.728973 14.506245 25.943839 -11.919337 12.058668 0.000000 0.000000 0.000000 0.000000 0.000000 0.000000 -7.949613 10.309061 -0.189907 6.196952 3.575819 1.702361 16.296221 -4.848153 -26.270089 0.000000 0.000000 0.000000 -7.837388 18.068641 2.917113 6.225109 -2.508444 -0.545476 5.405856 -12.400953 -8.185607 0.000000 0.000000 0.000000
21.449064 69.224871 368.368778 0.423045 -12.044526 -0.073997 -1.415359 0.117843 0.228547 -0.297590 0.642242 -0.053035 11.585305 -15.275407 -7.208749 0.000000 0.000000 0.000000 -1.149838 1.389714 0.705384 -3.595261 3.672774 1.491684 19.564881 14.123161 -5.505614 -15.499478 -3.936008 0.770597 0.000000 0.000000 0.000000 0.000000 0.000000 0.000000 40.860760 -36.581581 -6.346766 -49.570634 16.062639 32.825449 -23.953425 48.713880 8.314151 14.690532 -17.603478 10.588281 0.000000 0.000000 0.000000 0.000000 0.000000 0.000000 -8.077531 9.583301 0.061407 6.157001 3.630798 1.631389 16.457762 -2.945326 -26.109883 0.000000 0.000000 0.000000 -7.690353 17.773285 3.307750 6.914607 -2.227525 -0.297665 5.894681 -19.521537 -1.314837 0.000000 0.000000 0.000000
21.417844 69.267058 368.157537 0.107041 -11.670789 -0.442831 -1.130643 0.125289 0.529471 -0.192990 0.663615 -0.056991 11.672884 -16.196942 -7.223237 0.000000 0.000000 0.000000 -1.551284 1.508390 0.671377 -4.177022 2.050849 1.730338 21.224222 17.689960 -6.278889 -13.638329 -6.941818 0.231000 0.000000 0.000000 0.000000 0.000000 0.000000 0.000000 42.137114 -38.901887 -5.541631 -55.531147 20.239696 36.907632 -11.073551 43.918306 -0.020762 3.445166 -19.590868 7.784337 0.000000 0.000000 0.000000 0.000000 0.000000 0.000000 -9.065144 8.878309 0.293075 7.415023 3.686431 1.719675 16.080312 0.562717 -26.585269 0.000000 0.000000 0.000000 -7.491484 17.330067 3.567048 7.467103 -1.978448 -0.084699 8.769441 -29.389909 9.472275 0.000000 0.000000 0.000000
21.370183 69.325798 367.928226 -0.003201 -11.309153 -0.133710 -0.667771 0.080081 0.170755 -0.109646 0.632666 -0.046338 9.434216 -16.411104 -7.180795 0.000000 0.000000 0.000000 -2.328751 1.622967 0.653167 -2.815159 1.409232 1.352507 16.597410 20.222653 -4.578843 -9.891398 -8.479244 -0.391125 0.000000 0.000000 0.000000 0.000000 0.000000 0.000000 42.842971 -40.177803 -4.945760 -59.380070 23.580697 39.214367 -8.283129 43.013226 -2.371271 -2.974527 -26.770674 5.837957 0.000000 0.000000 0.000000 0.000000 0.000000 0.000000 -9.278838 8.261125 -0.177496 7.886830 4.147122 1.876563 14.783523 6.280608 -26.409281 0.000000 0.000000 0.000000 -7.261156 16.835081 3.110883 7.851207 -1.725084 0.085416 15.947341 -39.869388 24.643160 0.000000 0.000000 0.000000
21.299776 69.390537 367.685595 -0.103778 -10.931272 0.089251 -0.451559 0.067344 -0.080808 0.097607 0.624193 -0.046779 7.787817 -16.397919 -7.072180 0.000000 0.000000 0.000000 -2.992971 2.260330 0.603039 -1.315937 0.046021 0.948829 14.235045 22.933909 -3.732450 -8.423363 -10.747527 -0.843431 0.000000 0.000000 0.000000 0.000000 0.000000 0.000000 43.296668 -40.836202 -4.446695 -63.087593 27.683421 41.100960 -8.588921 39.207489 -3.322129 -4.419841 -32.811019 4.548569 0.000000 0.000000 0.000000 0.000000 0.000000 0.000000 -8.715046 7.697298 -0.569328 7.368493 4.349899 1.858813 14.696171 1.623740 -24.515055 0.000000 0.000000 0.000000 -7.021527 16.310398 2.737060 7.881676 -1.776202 0.106343 27.341266 -47.395229 42.058509 0.000000 0.000000 0.000000
